<svg xmlns="http://www.w3.org/2000/svg" viewBox="0 0 512 512">
  <path
    d="M256 512C114.839844 512 0 397.160156 0 256S114.839844 0 256 0s256 114.839844 256 256-114.839844 256-256 256zm0-475.429688c-120.992188 0-219.429688 98.4375-219.429688 219.429688S135.007812 475.429688 256 475.429688 475.429688 376.992188 475.429688 256 376.992188 36.570312 256 36.570312zm0 0"
  />
  <path
    d="M347.429688 365.714844c-4.679688 0-9.359376-1.785156-12.929688-5.359375L151.644531 177.5c-7.144531-7.144531-7.144531-18.714844 0-25.855469 7.140625-7.140625 18.714844-7.144531 25.855469 0L360.355469 334.5c7.144531 7.144531 7.144531 18.714844 0 25.855469-3.570313 3.574219-8.246094 5.359375-12.925781 5.359375zm0 0"
  />
  <path
    d="M164.570312 365.714844c-4.679687 0-9.355468-1.785156-12.925781-5.359375-7.144531-7.140625-7.144531-18.714844 0-25.855469L334.5 151.644531c7.144531-7.144531 18.714844-7.144531 25.855469 0 7.140625 7.140625 7.144531 18.714844 0 25.855469L177.5 360.355469c-3.570312 3.574219-8.25 5.359375-12.929688 5.359375zm0 0"
  />
</svg>